<?xml version="1.0" standalone="no"?><!DOCTYPE svg PUBLIC "-//W3C//DTD SVG 1.1//EN" "http://www.w3.org/Graphics/SVG/1.1/DTD/svg11.dtd"><svg width="100%" height="100%" viewBox="0 0 60 60" version="1.1" xmlns="http://www.w3.org/2000/svg" xmlns:xlink="http://www.w3.org/1999/xlink" xml:space="preserve" style="fill-rule:evenodd;clip-rule:evenodd;stroke-linecap:round;stroke-linejoin:round;stroke-miterlimit:1.41421;"><g id="filled"><circle cx="29.9109" cy="30.0839" r="28.998" style="fill:url(#tag1);"/><path d="M1.28848,33.5345l-3.55271e-15,-7.16758l28.6445,1.79189l0,3.58379l-28.6445,1.79189Z" style="fill:url(#tag2);"/><path d="M26.3785,1.39605l7.16758,0l-1.79189,28.6445l-3.58379,0l-1.79189,-28.6445Z" style="fill:url(#tag3);"/><path d="M7.75033,11.4806l5.236,-4.89474l18.2523,22.1489l-2.618,2.44737l-20.8703,-19.7015Z" style="fill:url(#tag4);"/><path d="M58.5564,33.5345l0,-7.16758l-28.6445,1.79189l0,3.58379l28.6445,1.79189Z" style="fill:url(#tag5);"/><path d="M26.3785,58.664l7.16758,0l-1.79189,-28.6445l-3.58379,0l-1.79189,28.6445Z" style="fill:url(#tag6);"/><path d="M46.8586,53.3156l5.236,-4.89474l-20.8703,-19.7015l-2.618,2.44737l18.2523,22.1489Z" style="fill:url(#tag7);"/><path d="M11.4523,52.1229l-4.89474,-5.236l22.1489,-18.2523l2.44737,2.618l-19.7015,20.8703Z" style="fill:url(#tag8);"/><path d="M53.2873,13.0146l-4.89474,-5.236l-19.7015,20.8703l2.44737,2.618l22.1489,-18.2523Z" style="fill:url(#tag9);"/><circle cx="30.0207" cy="30.0839" r="28.998" style="fill:none;stroke-width:1.5px;stroke:#000;"/><path id="Rectangle-1624" d="M42.9427,27.0526l0,9.58268c0,0 -4.91854,2.94852 -12.7598,2.94852c-7.84125,0 -12.7598,-2.94852 -12.7598,-2.94852l0,-9.58268" style="fill:#ccc;stroke-width:1.49px;stroke:#000;"/><path id="Rectangle-1623" d="M12.0042,23.8528c-0.737979,-0.371323 -0.736536,-0.974082 -1.59221e-08,-1.34468l16.6572,-8.38124c0.737979,-0.371323 1.93592,-0.370597 2.67246,5.32907e-15l16.6572,8.38124c0.737979,0.371323 0.736536,0.974082 7.10543e-15,1.34468l-16.6572,8.38124c-0.737979,0.371323 -1.93592,0.370597 -2.67246,0l-16.6572,-8.38124Z" style="fill:#ccc;stroke-width:1.5px;stroke:#000;"/><path id="Line" d="M39.9404,28.5269l0,13.2683" style="fill:#d8d8d8;stroke-width:1.49px;stroke:#000;"/><ellipse id="Oval-1441" cx="39.9404" cy="44.0066" rx="2.25173" ry="2.21139" style="fill:#6b5d73;stroke-width:1.49px;stroke:#000;"/><path id="Line1" d="M18.1737,23.367l3.0023,-1.47426" style="fill:#d8d8d8;stroke-width:1.49px;stroke:#000;"/><path id="Line2" d="M21.176,24.8412l3.0023,-1.47426" style="fill:#d8d8d8;stroke-width:1.49px;stroke:#000;"/></g><defs><radialGradient id="tag1" cx="0" cy="0" r="1" gradientUnits="userSpaceOnUse" gradientTransform="matrix(28.998,0,0,28.998,29.9109,30.0839)"><stop offset="0%" style="stop-color:#e9f065;stop-opacity:1"/><stop offset="48%" style="stop-color:#eff48d;stop-opacity:1"/><stop offset="100%" style="stop-color:#fff;stop-opacity:1"/><stop offset="100%" style="stop-color:#fff;stop-opacity:1"/></radialGradient><linearGradient id="tag2" x1="0" y1="0" x2="1" y2="0" gradientUnits="userSpaceOnUse" gradientTransform="matrix(18.6945,-0.184961,0.184961,18.6945,1.65254,30.1601)"><stop offset="0%" style="stop-color:#e9f065;stop-opacity:1"/><stop offset="100%" style="stop-color:#fff;stop-opacity:1"/></linearGradient><linearGradient id="tag3" x1="0" y1="0" x2="1" y2="0" gradientUnits="userSpaceOnUse" gradientTransform="matrix(0.184961,18.6945,-18.6945,0.184961,29.7529,1.76011)"><stop offset="0%" style="stop-color:#e9f065;stop-opacity:1"/><stop offset="100%" style="stop-color:#fff;stop-opacity:1"/></linearGradient><linearGradient id="tag4" x1="0" y1="0" x2="1" y2="0" gradientUnits="userSpaceOnUse" gradientTransform="matrix(12.9016,13.5303,-13.5303,12.9016,10.464,9.44219)"><stop offset="0%" style="stop-color:#e9f065;stop-opacity:1"/><stop offset="100%" style="stop-color:#fff;stop-opacity:1"/></linearGradient><linearGradient id="tag5" x1="0" y1="0" x2="1" y2="0" gradientUnits="userSpaceOnUse" gradientTransform="matrix(-18.6945,-0.184961,-0.184961,18.6945,58.1924,30.1601)"><stop offset="0%" style="stop-color:#e9f065;stop-opacity:1"/><stop offset="100%" style="stop-color:#fff;stop-opacity:1"/></linearGradient><linearGradient id="tag6" x1="0" y1="0" x2="1" y2="0" gradientUnits="userSpaceOnUse" gradientTransform="matrix(0.184961,-18.6945,-18.6945,-0.184961,29.7529,58.3)"><stop offset="0%" style="stop-color:#e9f065;stop-opacity:1"/><stop offset="100%" style="stop-color:#fff;stop-opacity:1"/></linearGradient><linearGradient id="tag7" x1="0" y1="0" x2="1" y2="0" gradientUnits="userSpaceOnUse" gradientTransform="matrix(-12.6314,-13.7829,-13.7829,12.6314,49.075,50.7452)"><stop offset="0%" style="stop-color:#e9f065;stop-opacity:1"/><stop offset="100%" style="stop-color:#fff;stop-opacity:1"/></linearGradient><linearGradient id="tag8" x1="0" y1="0" x2="1" y2="0" gradientUnits="userSpaceOnUse" gradientTransform="matrix(13.5303,-12.9016,12.9016,13.5303,9.41392,49.4092)"><stop offset="0%" style="stop-color:#e9f065;stop-opacity:1"/><stop offset="100%" style="stop-color:#fff;stop-opacity:1"/></linearGradient><linearGradient id="tag9" x1="0" y1="0" x2="1" y2="0" gradientUnits="userSpaceOnUse" gradientTransform="matrix(-13.7829,12.6314,12.6314,13.7829,50.717,10.7982)"><stop offset="0%" style="stop-color:#e9f065;stop-opacity:1"/><stop offset="100%" style="stop-color:#fff;stop-opacity:1"/></linearGradient></defs></svg>