<?xml version="1.0" standalone="no"?><!DOCTYPE svg PUBLIC "-//W3C//DTD SVG 1.1//EN" "http://www.w3.org/Graphics/SVG/1.1/DTD/svg11.dtd"><svg width="100%" height="100%" viewBox="0 0 60 60" version="1.1" xmlns="http://www.w3.org/2000/svg" xmlns:xlink="http://www.w3.org/1999/xlink" xml:space="preserve" style="fill-rule:evenodd;clip-rule:evenodd;stroke-linecap:round;stroke-linejoin:round;stroke-miterlimit:1.41421;"><g id="BUYER"><circle cx="29.9109" cy="30.0839" r="28.998" style="fill:url(#tag1);"/><path d="M15.3073,16.712l4.32266,0.204688" style="fill:none;stroke-width:1.5px;stroke:#bcc238;"/><path d="M45.0748,43.4034l-4.32266,-0.204688" style="fill:none;stroke-width:1.5px;stroke:#bcc238;"/><path d="M15.5073,12.2616l-0.3375,4.54063c9.99518,-9.29948 20.0094,-9.29948 30.0426,0" style="fill:none;stroke-width:1.5px;stroke:#bcc238;"/><path d="M44.8748,47.8538l0.3375,-4.54063c-9.99518,9.29948 -20.0094,9.29948 -30.0426,0" style="fill:none;stroke-width:1.5px;stroke:#bcc238;"/><circle cx="30.0207" cy="30.0839" r="28.998" style="fill:none;stroke-width:1.5px;stroke:#000;"/><g id="Layer1"><path id="Rectangle-1485" d="M20.2067,25.7292c0,-2.20914 -1.79086,-4 -4,-4l-3.96935,0c-2.20914,0 -4,1.79086 -4,4l0,8.26603c0,2.20914 1.79086,4 4,4l3.96935,0c2.20914,0 4,-1.79086 4,-4l0,-8.26603Z" style="fill:#ccc;stroke-width:0.61px;stroke:#000;"/><rect id="Rectangle-1486" x="9.46503" y="23.9537" width="9.5141" height="4.5579" style="fill:#fff;stroke-width:0.59px;stroke:#000;"/><rect id="Rectangle-1487" x="9.39319" y="29.2998" width="9.65777" height="6.43851" style="fill:#887f8d;stroke-width:0.5px;stroke:#000;"/><path id="Line" d="M9.64082,31.5285l9.16585,0" style="fill:#ccc;stroke-width:0.5px;stroke-linecap:square;stroke:#000;"/><path id="Line1" d="M9.64082,33.5096l9.16585,0" style="fill:#ccc;stroke-width:0.5px;stroke-linecap:square;stroke:#000;"/><path id="Line2" d="M12.6124,29.5474l0,5.44797" style="fill:#ccc;stroke-width:0.5px;stroke-linecap:square;stroke:#000;"/><path id="Line3" d="M15.8317,29.5474l0,5.44797" style="fill:#ccc;stroke-width:0.5px;stroke-linecap:square;stroke:#000;"/></g><g id="Layer2"><path id="Rectangle-688" d="M41.2709,25.5332l9.22715,0l-0.656141,11.5372c-0.0296245,0.520902 -0.524457,0.943176 -1.09851,0.943176l-5.71786,0c-0.577063,0 -1.06889,-0.422397 -1.09851,-0.943176l-0.656141,-11.5372Z" style="fill:#887f8d;stroke-width:0.59px;stroke:#000;"/><path d="M50.2719,33.4l0.537594,-3.99843l-9.89467,0l0.576149,3.99843l8.78092,0Z" style="fill:#ccc;stroke-width:0.58px;stroke-linecap:square;stroke:#000;"/><path d="M49.5754,22.9426l2.153,0l0,1.84543l-11.6877,0l0,-1.84543l2.153,0l0,-1.23029l7.38172,0l0,1.23029Z" style="fill:#fff;stroke-width:0.59px;stroke:#000;"/></g><g id="Layer4"><g id="Layer3"><path id="Line4" d="M22.5884,22.5839l0,15.5026" style="fill:none;stroke-width:0.67px;stroke-linecap:square;stroke-dasharray:1.35,1.35;stroke:#000;"/><path id="Line5" d="M23.5951,38.0866l15.1622,0" style="fill:none;stroke-width:0.66px;stroke-linecap:square;stroke:#000;"/><rect id="Rectangle-1594" x="25.2731" y="31.3463" width="2.01355" height="5.0552" style="fill:#53425e;stroke-width:0.59px;stroke:#000;"/><rect id="Rectangle-15941" x="31.9849" y="28.9872" width="2.01355" height="7.4143" style="fill:#887f8d;stroke-width:0.59px;stroke:#000;"/><rect id="Rectangle-1595" x="28.629" y="25.6171" width="2.01355" height="10.7844" style="fill:#6b5d73;stroke-width:0.59px;stroke:#000;"/><rect id="Rectangle-15951" x="35.3408" y="34.0424" width="2.01355" height="2.3591" style="fill:#b2aeb5;stroke-width:0.59px;stroke:#000;"/></g></g></g><defs><radialGradient id="tag1" cx="0" cy="0" r="1" gradientUnits="userSpaceOnUse" gradientTransform="matrix(28.998,0,0,28.998,29.9109,30.0839)"><stop offset="0%" style="stop-color:#e9f065;stop-opacity:1"/><stop offset="48%" style="stop-color:#eff48d;stop-opacity:1"/><stop offset="100%" style="stop-color:#fff;stop-opacity:1"/><stop offset="100%" style="stop-color:#fff;stop-opacity:1"/></radialGradient></defs></svg>