<?xml version="1.0" standalone="no"?><!DOCTYPE svg PUBLIC "-//W3C//DTD SVG 1.1//EN" "http://www.w3.org/Graphics/SVG/1.1/DTD/svg11.dtd"><svg width="100%" height="100%" viewBox="0 0 60 60" version="1.1" xmlns="http://www.w3.org/2000/svg" xmlns:xlink="http://www.w3.org/1999/xlink" xml:space="preserve" style="fill-rule:evenodd;clip-rule:evenodd;stroke-linecap:round;stroke-linejoin:round;stroke-miterlimit:1.41421;"><g id="ECOMM"><circle cx="29.9109" cy="30.0839" r="28.998" style="fill:url(#tag1);"/><rect x="14.2673" y="19.7721" width="31.9844" height="16.2284" style="fill:#fff;"/><path d="M27.0772,40.5984l5.80712,0.0992669l3.116,6.66736c-4.12433,0.0357987 -3.87369,0.0943388 -11.6033,0.0968187l2.68021,-6.86344Z" style="fill:#ccc;"/><circle cx="30.0207" cy="30.0839" r="28.998" style="fill:none;stroke-width:1.5px;stroke:#000;"/><rect x="13.6603" y="36.0835" width="32.459" height="3.80286" style="fill:#ccc;"/><rect x="16.1635" y="21.3929" width="14.721" height="2.62468" style="fill:#2c3808;"/><rect x="16.1635" y="24.8904" width="8.42392" height="4.21709" style="fill:#495b15;"/><rect x="25.8369" y="24.8904" width="8.42392" height="4.21709" style="fill:#495b15;"/><rect x="35.5268" y="24.8904" width="8.42392" height="4.21709" style="fill:#495b15;"/><rect x="34.3501" y="21.3929" width="9.51063" height="2.62468" style="fill:#b3c671;"/><rect x="16.1635" y="29.9916" width="27.7162" height="3.81766" style="fill:#b3c671;"/><g id="Layer5"><g id="Layer51"><path d="M46.4862,21.3414l0.00046875,1.12297l0,15.4225c-0.0529167,1.70229 -0.813333,2.61708 -2.28125,2.74438l-1.11359,0.0132812l-26.7491,0c-1.70229,-0.0529167 -2.61708,-0.813333 -2.74437,-2.28125l0.0985938,-16.5045c0.0529167,-1.70229 0.813333,-2.61708 2.28125,-2.74437l27.7636,-0.0542188c1.70229,0.0529167 2.61708,0.813333 2.74437,2.28125Z" style="fill:none;stroke-width:1.5px;stroke:#000;"/><path d="M13.568,36.1896l32.93,0" style="fill:none;stroke-width:1.5px;stroke:#000;"/><path d="M21.1446,47.2889l17.8197,0" style="fill:none;stroke-width:1.5px;stroke:#000;"/><path d="M23.3984,47.273c1.95059,-1.61282 3.43769,-3.54795 3.54156,-6.445" style="fill:none;stroke-width:1.5px;stroke:#000;"/><path d="M36.6677,47.273c-1.95059,-1.61282 -3.43769,-3.54795 -3.54156,-6.445" style="fill:none;stroke-width:1.5px;stroke:#000;"/><circle cx="30.0012" cy="38.4508" r="0.755625" style="fill:#000;"/></g></g><path d="M23.0952,10.2386c4.63607,-2.98073 9.25236,-3.07535 13.8469,0" style="fill:none;stroke-width:1.7px;stroke:#000;"/><path d="M25.8682,12.8447c2.78813,-1.79261 5.56437,-1.84952 8.32755,0" style="fill:none;stroke-width:1.7px;stroke:#000;"/><circle cx="30.0201" cy="15.3758" r="1.20156" style="fill:#000;"/></g><defs><radialGradient id="tag1" cx="0" cy="0" r="1" gradientUnits="userSpaceOnUse" gradientTransform="matrix(28.998,0,0,28.998,29.9109,30.0839)"><stop offset="0%" style="stop-color:#e9f065;stop-opacity:1"/><stop offset="48%" style="stop-color:#eff48d;stop-opacity:1"/><stop offset="100%" style="stop-color:#fff;stop-opacity:1"/><stop offset="100%" style="stop-color:#fff;stop-opacity:1"/></radialGradient></defs></svg>