<?xml version="1.0" standalone="no"?><!DOCTYPE svg PUBLIC "-//W3C//DTD SVG 1.1//EN" "http://www.w3.org/Graphics/SVG/1.1/DTD/svg11.dtd"><svg width="100%" height="100%" viewBox="0 0 300 380" version="1.1" xmlns="http://www.w3.org/2000/svg" xmlns:xlink="http://www.w3.org/1999/xlink" xml:space="preserve" style="fill-rule:evenodd;clip-rule:evenodd;stroke-linejoin:round;stroke-miterlimit:1.41421;"><g id="Layer3"><circle cx="149.856" cy="277.28" r="42.5488" style="fill:#c4c1ca;fill-opacity:0.6;"/><circle cx="188.463" cy="215.612" r="52.0635" style="fill:#aba2b7;fill-opacity:0.6;"/><circle cx="132.429" cy="132.536" r="72.4746" style="fill:#55466a;fill-opacity:0.462745;"/><g transform="matrix(1,0,0,1,-14.168,5.36133)"><path d="M100.885,119.251c1.38,1.785 2.7525,3.56625 4.1175,5.34375c1.365,1.7775 2.7375,3.55875 4.1175,5.34375c1.38,-1.785 2.7525,-3.56625 4.1175,-5.34375c1.365,-1.7775 2.7375,-3.55875 4.1175,-5.34375l0,16.47l-1.8675,0l0,-10.575c0.015,-0.12 0.02625,-0.24 0.03375,-0.36c0.0075,-0.12 0.01875,-0.24 0.03375,-0.36c-0.99,1.47 -2.04,2.89875 -3.15,4.28625c-1.11,1.3875 -2.205,2.78625 -3.285,4.19625c-1.005,-1.32 -2.01,-2.6325 -3.015,-3.9375c-1.005,-1.305 -2.01,-2.6175 -3.015,-3.9375l-0.405,-0.6075c0.015,0.12 0.02625,0.24 0.03375,0.36c0.0075,0.12 0.01875,0.24 0.03375,0.36l0,10.575l-1.8675,0l0,-16.47Z" style="fill:#000;fill-rule:nonzero;"/><path d="M122.71,131.491c0,0.735 0.24375,1.35375 0.73125,1.85625c0.4875,0.5025 1.12125,0.75375 1.90125,0.75375c0.78,0 1.41375,-0.25125 1.90125,-0.75375c0.4875,-0.5025 0.73125,-1.12125 0.73125,-1.85625c0,-0.75 -0.24375,-1.36875 -0.73125,-1.85625c-0.4875,-0.4875 -1.12125,-0.73125 -1.90125,-0.73125c-0.78,0 -1.41375,0.24375 -1.90125,0.73125c-0.4875,0.4875 -0.73125,1.10625 -0.73125,1.85625ZM120.82,131.513c0,-0.585 0.11625,-1.1475 0.34875,-1.6875c0.2325,-0.54 0.55125,-1.0125 0.95625,-1.4175c0.405,-0.405 0.885,-0.7275 1.44,-0.9675c0.555,-0.24 1.1475,-0.36 1.7775,-0.36c0.405,0 0.78,0.06 1.125,0.18c0.345,0.12 0.645,0.25125 0.9,0.39375c0.255,0.1425 0.4575,0.28125 0.6075,0.41625c0.15,0.135 0.225,0.225 0.225,0.27c0,-0.165 0.015,-0.3375 0.045,-0.5175c0.03,-0.18 0.045,-0.36 0.045,-0.54l1.5525,0l0,8.4375l-1.6425,0l0,-0.72l0,-0.2025c0,0.045 -0.0675,0.1275 -0.2025,0.2475c-0.135,0.12 -0.3225,0.24375 -0.5625,0.37125c-0.24,0.1275 -0.53625,0.24375 -0.88875,0.34875c-0.3525,0.105 -0.75375,0.1575 -1.20375,0.1575c-0.63,0 -1.2225,-0.11625 -1.7775,-0.34875c-0.555,-0.2325 -1.035,-0.55125 -1.44,-0.95625c-0.405,-0.405 -0.72375,-0.87375 -0.95625,-1.40625c-0.2325,-0.5325 -0.34875,-1.09875 -0.34875,-1.69875Z" style="fill:#000;fill-rule:nonzero;"/><path d="M137.942,128.926c-0.915,0 -1.65,0.255 -2.205,0.765c-0.555,0.51 -0.8325,1.155 -0.8325,1.935l0,4.095l-1.8675,0l0,-8.4375l1.6425,0l0,0.2025c0.03,0.36 0.05625,0.68625 0.07875,0.97875c0.0225,0.2925 0.04875,0.61875 0.07875,0.97875c0.18,-0.375 0.40875,-0.70875 0.68625,-1.00125c0.2775,-0.2925 0.57,-0.54 0.8775,-0.7425c0.3075,-0.2025 0.6075,-0.35625 0.9,-0.46125c0.2925,-0.105 0.55125,-0.1575 0.77625,-0.1575l-0.135,1.845Z" style="fill:#000;fill-rule:nonzero;"/><path d="M145.997,127.081l1.1025,1.1025c-0.51,0.48 -0.99,0.93375 -1.44,1.36125c-0.45,0.4275 -0.93,0.88125 -1.44,1.36125c0.585,0.81 1.17,1.6125 1.755,2.4075c0.585,0.795 1.17,1.5975 1.755,2.4075l-2.16,0c-0.435,-0.6 -0.8775,-1.2 -1.3275,-1.8c-0.45,-0.6 -0.8925,-1.2 -1.3275,-1.8c-0.18,0.165 -0.36375,0.3375 -0.55125,0.5175c-0.1875,0.18 -0.37125,0.3525 -0.55125,0.5175l0,2.565l-1.8675,0l0,-16.875l1.8675,0l0,12.1275c0.72,-0.675 1.4175,-1.32375 2.0925,-1.94625c0.675,-0.6225 1.3725,-1.27125 2.0925,-1.94625Z" style="fill:#000;fill-rule:nonzero;"/><path d="M154.052,128.903c-0.6,0 -1.1175,0.15 -1.5525,0.45c-0.435,0.3 -0.7425,0.69 -0.9225,1.17c-0.075,0.225 -0.1275,0.4875 -0.1575,0.7875c0.705,-0.255 1.40625,-0.51375 2.10375,-0.77625c0.6975,-0.2625 1.39875,-0.52125 2.10375,-0.77625c-0.21,-0.255 -0.44625,-0.46125 -0.70875,-0.61875c-0.2625,-0.1575 -0.55125,-0.23625 -0.86625,-0.23625ZM158.012,130.816c-1.02,0.375 -2.03625,0.75 -3.04875,1.125c-1.0125,0.375 -2.02875,0.75 -3.04875,1.125c0.225,0.315 0.52125,0.56625 0.88875,0.75375c0.3675,0.1875 0.78375,0.28125 1.24875,0.28125c0.69,0 1.26,-0.24 1.71,-0.72l1.1475,1.35c-0.375,0.375 -0.8025,0.6675 -1.2825,0.8775c-0.48,0.21 -1.005,0.315 -1.575,0.315c-0.63,0 -1.21875,-0.11625 -1.76625,-0.34875c-0.5475,-0.2325 -1.02375,-0.55125 -1.42875,-0.95625c-0.405,-0.405 -0.72375,-0.87375 -0.95625,-1.40625c-0.2325,-0.5325 -0.34875,-1.10625 -0.34875,-1.72125c0,-0.6 0.11625,-1.17 0.34875,-1.71c0.2325,-0.54 0.55125,-1.00875 0.95625,-1.40625c0.405,-0.3975 0.88125,-0.7125 1.42875,-0.945c0.5475,-0.2325 1.13625,-0.34875 1.76625,-0.34875c0.465,0 0.91125,0.09375 1.33875,0.28125c0.4275,0.1875 0.81,0.44625 1.1475,0.77625c0.3375,0.33 0.63375,0.72375 0.88875,1.18125c0.255,0.4575 0.45,0.95625 0.585,1.49625Z" style="fill:#000;fill-rule:nonzero;"/><path d="M161.32,121.793l1.8675,0l0,5.2875l2.205,0l0,1.8225l-2.205,0l0,6.8175l-1.8675,0l0,-6.8175l-1.89,0l0,-1.8225l1.89,0l0,-5.2875Z" style="fill:#000;fill-rule:nonzero;"/><path d="M167.53,124.021c0,-0.345 0.12,-0.63 0.36,-0.855c0.24,-0.225 0.51,-0.3375 0.81,-0.3375c0.285,0 0.5475,0.1125 0.7875,0.3375c0.24,0.225 0.36,0.51 0.36,0.855c0,0.345 -0.12,0.62625 -0.36,0.84375c-0.24,0.2175 -0.5025,0.32625 -0.7875,0.32625c-0.3,0 -0.57,-0.10875 -0.81,-0.32625c-0.24,-0.2175 -0.36,-0.49875 -0.36,-0.84375ZM169.6,135.721l-1.8675,0l0,-8.4375l1.8675,0l0,8.4375Z" style="fill:#000;fill-rule:nonzero;"/><path d="M173.56,127.283l1.6425,0l0,0.2025c0.03,0.36 0.05625,0.68625 0.07875,0.97875c0.0225,0.2925 0.04875,0.61875 0.07875,0.97875c0.3,-0.72 0.78375,-1.29375 1.45125,-1.72125c0.6675,-0.4275 1.40625,-0.64125 2.21625,-0.64125c0.885,0 1.5825,0.2325 2.0925,0.6975c0.51,0.465 0.78,1.0725 0.81,1.8225l0,6.12l-1.8675,0l0,-5.265c-0.03,-0.405 -0.17625,-0.75375 -0.43875,-1.04625c-0.2625,-0.2925 -0.67875,-0.45375 -1.24875,-0.48375c-0.39,0 -0.76125,0.0675 -1.11375,0.2025c-0.3525,0.135 -0.66375,0.3225 -0.93375,0.5625c-0.27,0.24 -0.4875,0.525 -0.6525,0.855c-0.165,0.33 -0.2475,0.69 -0.2475,1.08l0,4.095l-1.8675,0l0,-8.4375Z" style="fill:#000;fill-rule:nonzero;"/><path d="M186.632,131.491c0,0.735 0.24375,1.35375 0.73125,1.85625c0.4875,0.5025 1.12125,0.75375 1.90125,0.75375c0.78,0 1.41375,-0.25125 1.90125,-0.75375c0.4875,-0.5025 0.73125,-1.12125 0.73125,-1.85625c0,-0.75 -0.24375,-1.36875 -0.73125,-1.85625c-0.4875,-0.4875 -1.12125,-0.73125 -1.90125,-0.73125c-0.78,0 -1.41375,0.24375 -1.90125,0.73125c-0.4875,0.4875 -0.73125,1.10625 -0.73125,1.85625ZM192.212,127.283l1.5525,0l0,9.7875c0,0.6 -0.11625,1.15875 -0.34875,1.67625c-0.2325,0.5175 -0.55125,0.9675 -0.95625,1.35c-0.405,0.3825 -0.8775,0.68625 -1.4175,0.91125c-0.54,0.225 -1.125,0.3375 -1.755,0.3375c-0.675,0 -1.3275,-0.14625 -1.9575,-0.43875c-0.63,-0.2925 -1.17,-0.59625 -1.62,-0.91125c0.21,-0.255 0.41625,-0.51 0.61875,-0.765c0.2025,-0.255 0.40875,-0.51 0.61875,-0.765c0.3,0.225 0.64875,0.43875 1.04625,0.64125c0.3975,0.2025 0.81375,0.30375 1.24875,0.30375c0.39,0 0.74625,-0.0675 1.06875,-0.2025c0.3225,-0.135 0.60375,-0.31875 0.84375,-0.55125c0.24,-0.2325 0.42375,-0.51 0.55125,-0.8325c0.1275,-0.3225 0.19125,-0.67125 0.19125,-1.04625l0,-1.5075c0.03,-0.075 0.06375,-0.14625 0.10125,-0.21375c0.0375,-0.0675 0.07125,-0.13875 0.10125,-0.21375c-0.045,0.06 -0.1425,0.15 -0.2925,0.27c-0.15,0.12 -0.345,0.23625 -0.585,0.34875c-0.24,0.1125 -0.525,0.21375 -0.855,0.30375c-0.33,0.09 -0.6975,0.135 -1.1025,0.135c-0.63,0 -1.2225,-0.11625 -1.7775,-0.34875c-0.555,-0.2325 -1.035,-0.5475 -1.44,-0.945c-0.405,-0.3975 -0.72375,-0.8625 -0.95625,-1.395c-0.2325,-0.5325 -0.34875,-1.09875 -0.34875,-1.69875c0,-0.585 0.11625,-1.1475 0.34875,-1.6875c0.2325,-0.54 0.55125,-1.0125 0.95625,-1.4175c0.405,-0.405 0.885,-0.7275 1.44,-0.9675c0.555,-0.24 1.1475,-0.36 1.7775,-0.36c0.405,0 0.78,0.06 1.125,0.18c0.345,0.12 0.645,0.25125 0.9,0.39375c0.255,0.1425 0.4575,0.28125 0.6075,0.41625c0.15,0.135 0.225,0.225 0.225,0.27c0,-0.165 0.015,-0.3375 0.045,-0.5175c0.03,-0.18 0.045,-0.36 0.045,-0.54Z" style="fill:#000;fill-rule:nonzero;"/></g><path d="M155.493,214.418l1.9575,0c0.66,0 1.20375,-0.08625 1.63125,-0.25875c0.4275,-0.1725 0.76875,-0.38625 1.02375,-0.64125c0.255,-0.255 0.435,-0.54 0.54,-0.855c0.105,-0.315 0.1575,-0.615 0.1575,-0.9c0,-0.33 -0.08625,-0.64875 -0.25875,-0.95625c-0.1725,-0.3075 -0.405,-0.5775 -0.6975,-0.81c-0.2925,-0.2325 -0.645,-0.41625 -1.0575,-0.55125c-0.4125,-0.135 -0.85125,-0.2025 -1.31625,-0.2025l-1.98,0l0,5.175ZM153.625,223.238l0,-15.75l3.7125,0c0.51,0 1.07625,0.07875 1.69875,0.23625c0.6225,0.1575 1.20375,0.40875 1.74375,0.75375c0.54,0.345 0.99,0.7875 1.35,1.3275c0.36,0.54 0.54,1.1925 0.54,1.9575c0,1.365 -0.405,2.44875 -1.215,3.25125c-0.81,0.8025 -1.98,1.20375 -3.51,1.20375l-2.4525,0l0,7.02l-1.8675,0Z" style="fill:#000;fill-rule:nonzero;"/><rect x="164.628" y="206.363" width="1.8675" height="16.875" style="fill:#000;fill-rule:nonzero;"/><path d="M170.68,219.008c0,0.735 0.24375,1.35375 0.73125,1.85625c0.4875,0.5025 1.12125,0.75375 1.90125,0.75375c0.78,0 1.41375,-0.25125 1.90125,-0.75375c0.4875,-0.5025 0.73125,-1.12125 0.73125,-1.85625c0,-0.75 -0.24375,-1.36875 -0.73125,-1.85625c-0.4875,-0.4875 -1.12125,-0.73125 -1.90125,-0.73125c-0.78,0 -1.41375,0.24375 -1.90125,0.73125c-0.4875,0.4875 -0.73125,1.10625 -0.73125,1.85625ZM168.79,219.031c0,-0.585 0.11625,-1.1475 0.34875,-1.6875c0.2325,-0.54 0.55125,-1.0125 0.95625,-1.4175c0.405,-0.405 0.885,-0.7275 1.44,-0.9675c0.555,-0.24 1.1475,-0.36 1.7775,-0.36c0.405,0 0.78,0.06 1.125,0.18c0.345,0.12 0.645,0.25125 0.9,0.39375c0.255,0.1425 0.4575,0.28125 0.6075,0.41625c0.15,0.135 0.225,0.225 0.225,0.27c0,-0.165 0.015,-0.3375 0.045,-0.5175c0.03,-0.18 0.045,-0.36 0.045,-0.54l1.5525,0l0,8.4375l-1.6425,0l0,-0.72l0,-0.2025c0,0.045 -0.0675,0.1275 -0.2025,0.2475c-0.135,0.12 -0.3225,0.24375 -0.5625,0.37125c-0.24,0.1275 -0.53625,0.24375 -0.88875,0.34875c-0.3525,0.105 -0.75375,0.1575 -1.20375,0.1575c-0.63,0 -1.2225,-0.11625 -1.7775,-0.34875c-0.555,-0.2325 -1.035,-0.55125 -1.44,-0.95625c-0.405,-0.405 -0.72375,-0.87375 -0.95625,-1.40625c-0.2325,-0.5325 -0.34875,-1.09875 -0.34875,-1.69875Z" style="fill:#000;fill-rule:nonzero;"/><path d="M181.008,214.801l1.6425,0l0,0.2025c0.03,0.36 0.05625,0.68625 0.07875,0.97875c0.0225,0.2925 0.04875,0.61875 0.07875,0.97875c0.3,-0.72 0.78375,-1.29375 1.45125,-1.72125c0.6675,-0.4275 1.40625,-0.64125 2.21625,-0.64125c0.885,0 1.5825,0.2325 2.0925,0.6975c0.51,0.465 0.78,1.0725 0.81,1.8225l0,6.12l-1.8675,0l0,-5.265c-0.03,-0.405 -0.17625,-0.75375 -0.43875,-1.04625c-0.2625,-0.2925 -0.67875,-0.45375 -1.24875,-0.48375c-0.39,0 -0.76125,0.0675 -1.11375,0.2025c-0.3525,0.135 -0.66375,0.3225 -0.93375,0.5625c-0.27,0.24 -0.4875,0.525 -0.6525,0.855c-0.165,0.33 -0.2475,0.69 -0.2475,1.08l0,4.095l-1.8675,0l0,-8.4375Z" style="fill:#000;fill-rule:nonzero;"/><path d="M192.145,214.801l1.6425,0l0,0.2025c0.03,0.36 0.05625,0.68625 0.07875,0.97875c0.0225,0.2925 0.04875,0.61875 0.07875,0.97875c0.3,-0.72 0.78375,-1.29375 1.45125,-1.72125c0.6675,-0.4275 1.40625,-0.64125 2.21625,-0.64125c0.885,0 1.5825,0.2325 2.0925,0.6975c0.51,0.465 0.78,1.0725 0.81,1.8225l0,6.12l-1.8675,0l0,-5.265c-0.03,-0.405 -0.17625,-0.75375 -0.43875,-1.04625c-0.2625,-0.2925 -0.67875,-0.45375 -1.24875,-0.48375c-0.39,0 -0.76125,0.0675 -1.11375,0.2025c-0.3525,0.135 -0.66375,0.3225 -0.93375,0.5625c-0.27,0.24 -0.4875,0.525 -0.6525,0.855c-0.165,0.33 -0.2475,0.69 -0.2475,1.08l0,4.095l-1.8675,0l0,-8.4375Z" style="fill:#000;fill-rule:nonzero;"/><path d="M202.54,211.538c0,-0.345 0.12,-0.63 0.36,-0.855c0.24,-0.225 0.51,-0.3375 0.81,-0.3375c0.285,0 0.5475,0.1125 0.7875,0.3375c0.24,0.225 0.36,0.51 0.36,0.855c0,0.345 -0.12,0.62625 -0.36,0.84375c-0.24,0.2175 -0.5025,0.32625 -0.7875,0.32625c-0.3,0 -0.57,-0.10875 -0.81,-0.32625c-0.24,-0.2175 -0.36,-0.49875 -0.36,-0.84375ZM204.61,223.238l-1.8675,0l0,-8.4375l1.8675,0l0,8.4375Z" style="fill:#000;fill-rule:nonzero;"/><path d="M207.783,214.801l1.6425,0l0,0.2025c0.03,0.36 0.05625,0.68625 0.07875,0.97875c0.0225,0.2925 0.04875,0.61875 0.07875,0.97875c0.3,-0.72 0.78375,-1.29375 1.45125,-1.72125c0.6675,-0.4275 1.40625,-0.64125 2.21625,-0.64125c0.885,0 1.5825,0.2325 2.0925,0.6975c0.51,0.465 0.78,1.0725 0.81,1.8225l0,6.12l-1.8675,0l0,-5.265c-0.03,-0.405 -0.17625,-0.75375 -0.43875,-1.04625c-0.2625,-0.2925 -0.67875,-0.45375 -1.24875,-0.48375c-0.39,0 -0.76125,0.0675 -1.11375,0.2025c-0.3525,0.135 -0.66375,0.3225 -0.93375,0.5625c-0.27,0.24 -0.4875,0.525 -0.6525,0.855c-0.165,0.33 -0.2475,0.69 -0.2475,1.08l0,4.095l-1.8675,0l0,-8.4375Z" style="fill:#000;fill-rule:nonzero;"/><path d="M220.068,219.008c0,0.735 0.24375,1.35375 0.73125,1.85625c0.4875,0.5025 1.12125,0.75375 1.90125,0.75375c0.78,0 1.41375,-0.25125 1.90125,-0.75375c0.4875,-0.5025 0.73125,-1.12125 0.73125,-1.85625c0,-0.75 -0.24375,-1.36875 -0.73125,-1.85625c-0.4875,-0.4875 -1.12125,-0.73125 -1.90125,-0.73125c-0.78,0 -1.41375,0.24375 -1.90125,0.73125c-0.4875,0.4875 -0.73125,1.10625 -0.73125,1.85625ZM225.648,214.801l1.5525,0l0,9.7875c0,0.6 -0.11625,1.15875 -0.34875,1.67625c-0.2325,0.5175 -0.55125,0.9675 -0.95625,1.35c-0.405,0.3825 -0.8775,0.68625 -1.4175,0.91125c-0.54,0.225 -1.125,0.3375 -1.755,0.3375c-0.675,0 -1.3275,-0.14625 -1.9575,-0.43875c-0.63,-0.2925 -1.17,-0.59625 -1.62,-0.91125c0.21,-0.255 0.41625,-0.51 0.61875,-0.765c0.2025,-0.255 0.40875,-0.51 0.61875,-0.765c0.3,0.225 0.64875,0.43875 1.04625,0.64125c0.3975,0.2025 0.81375,0.30375 1.24875,0.30375c0.39,0 0.74625,-0.0675 1.06875,-0.2025c0.3225,-0.135 0.60375,-0.31875 0.84375,-0.55125c0.24,-0.2325 0.42375,-0.51 0.55125,-0.8325c0.1275,-0.3225 0.19125,-0.67125 0.19125,-1.04625l0,-1.5075c0.03,-0.075 0.06375,-0.14625 0.10125,-0.21375c0.0375,-0.0675 0.07125,-0.13875 0.10125,-0.21375c-0.045,0.06 -0.1425,0.15 -0.2925,0.27c-0.15,0.12 -0.345,0.23625 -0.585,0.34875c-0.24,0.1125 -0.525,0.21375 -0.855,0.30375c-0.33,0.09 -0.6975,0.135 -1.1025,0.135c-0.63,0 -1.2225,-0.11625 -1.7775,-0.34875c-0.555,-0.2325 -1.035,-0.5475 -1.44,-0.945c-0.405,-0.3975 -0.72375,-0.8625 -0.95625,-1.395c-0.2325,-0.5325 -0.34875,-1.09875 -0.34875,-1.69875c0,-0.585 0.11625,-1.1475 0.34875,-1.6875c0.2325,-0.54 0.55125,-1.0125 0.95625,-1.4175c0.405,-0.405 0.885,-0.7275 1.44,-0.9675c0.555,-0.24 1.1475,-0.36 1.7775,-0.36c0.405,0 0.78,0.06 1.125,0.18c0.345,0.12 0.645,0.25125 0.9,0.39375c0.255,0.1425 0.4575,0.28125 0.6075,0.41625c0.15,0.135 0.225,0.225 0.225,0.27c0,-0.165 0.015,-0.3375 0.045,-0.5175c0.03,-0.18 0.045,-0.36 0.045,-0.54Z" style="fill:#000;fill-rule:nonzero;"/><path d="M113.221,270.776l0,5.1525l2.43,0c0.885,0 1.58625,-0.2475 2.10375,-0.7425c0.5175,-0.495 0.77625,-1.1475 0.77625,-1.9575c0,-0.885 -0.27,-1.515 -0.81,-1.89c-0.54,-0.375 -1.245,-0.5625 -2.115,-0.5625l-2.385,0ZM113.221,277.706l0,5.265l2.4975,0c0.465,0 0.9,-0.0525 1.305,-0.1575c0.405,-0.105 0.76125,-0.26625 1.06875,-0.48375c0.3075,-0.2175 0.55125,-0.48375 0.73125,-0.79875c0.18,-0.315 0.27,-0.69 0.27,-1.125c0,-0.465 -0.105,-0.87 -0.315,-1.215c-0.21,-0.345 -0.48375,-0.62625 -0.82125,-0.84375c-0.3375,-0.2175 -0.73125,-0.37875 -1.18125,-0.48375c-0.45,-0.105 -0.9075,-0.1575 -1.3725,-0.1575l-2.1825,0ZM111.353,284.748l0,-15.75l4.1175,0c0.735,0 1.40625,0.075 2.01375,0.225c0.6075,0.15 1.125,0.3825 1.5525,0.6975c0.4275,0.315 0.76125,0.72375 1.00125,1.22625c0.24,0.5025 0.36,1.09875 0.36,1.78875c0,0.93 -0.22125,1.7475 -0.66375,2.4525c-0.4425,0.705 -1.11375,1.185 -2.01375,1.44c0.42,0.09 0.82875,0.24 1.22625,0.45c0.3975,0.21 0.7425,0.48 1.035,0.81c0.2925,0.33 0.52875,0.7125 0.70875,1.1475c0.18,0.435 0.27,0.9225 0.27,1.4625c0,0.675 -0.1425,1.26375 -0.4275,1.76625c-0.285,0.5025 -0.66375,0.9225 -1.13625,1.26c-0.4725,0.3375 -1.01625,0.5925 -1.63125,0.765c-0.615,0.1725 -1.245,0.25875 -1.89,0.25875l-4.5225,0Z" style="fill:#000;fill-rule:nonzero;"/><path d="M128.836,277.953c-0.915,0 -1.65,0.255 -2.205,0.765c-0.555,0.51 -0.8325,1.155 -0.8325,1.935l0,4.095l-1.8675,0l0,-8.4375l1.6425,0l0,0.2025c0.03,0.36 0.05625,0.68625 0.07875,0.97875c0.0225,0.2925 0.04875,0.61875 0.07875,0.97875c0.18,-0.375 0.40875,-0.70875 0.68625,-1.00125c0.2775,-0.2925 0.57,-0.54 0.8775,-0.7425c0.3075,-0.2025 0.6075,-0.35625 0.9,-0.46125c0.2925,-0.105 0.55125,-0.1575 0.77625,-0.1575l-0.135,1.845Z" style="fill:#000;fill-rule:nonzero;"/><path d="M131.468,280.518c0,0.735 0.24375,1.35375 0.73125,1.85625c0.4875,0.5025 1.12125,0.75375 1.90125,0.75375c0.78,0 1.41375,-0.25125 1.90125,-0.75375c0.4875,-0.5025 0.73125,-1.12125 0.73125,-1.85625c0,-0.75 -0.24375,-1.36875 -0.73125,-1.85625c-0.4875,-0.4875 -1.12125,-0.73125 -1.90125,-0.73125c-0.78,0 -1.41375,0.24375 -1.90125,0.73125c-0.4875,0.4875 -0.73125,1.10625 -0.73125,1.85625ZM129.578,280.541c0,-0.585 0.11625,-1.1475 0.34875,-1.6875c0.2325,-0.54 0.55125,-1.0125 0.95625,-1.4175c0.405,-0.405 0.885,-0.7275 1.44,-0.9675c0.555,-0.24 1.1475,-0.36 1.7775,-0.36c0.405,0 0.78,0.06 1.125,0.18c0.345,0.12 0.645,0.25125 0.9,0.39375c0.255,0.1425 0.4575,0.28125 0.6075,0.41625c0.15,0.135 0.225,0.225 0.225,0.27c0,-0.165 0.015,-0.3375 0.045,-0.5175c0.03,-0.18 0.045,-0.36 0.045,-0.54l1.5525,0l0,8.4375l-1.6425,0l0,-0.72l0,-0.2025c0,0.045 -0.0675,0.1275 -0.2025,0.2475c-0.135,0.12 -0.3225,0.24375 -0.5625,0.37125c-0.24,0.1275 -0.53625,0.24375 -0.88875,0.34875c-0.3525,0.105 -0.75375,0.1575 -1.20375,0.1575c-0.63,0 -1.2225,-0.11625 -1.7775,-0.34875c-0.555,-0.2325 -1.035,-0.55125 -1.44,-0.95625c-0.405,-0.405 -0.72375,-0.87375 -0.95625,-1.40625c-0.2325,-0.5325 -0.34875,-1.09875 -0.34875,-1.69875Z" style="fill:#000;fill-rule:nonzero;"/><path d="M141.796,276.311l1.6425,0l0,0.2025c0.03,0.36 0.05625,0.68625 0.07875,0.97875c0.0225,0.2925 0.04875,0.61875 0.07875,0.97875c0.3,-0.72 0.78375,-1.29375 1.45125,-1.72125c0.6675,-0.4275 1.40625,-0.64125 2.21625,-0.64125c0.885,0 1.5825,0.2325 2.0925,0.6975c0.51,0.465 0.78,1.0725 0.81,1.8225l0,6.12l-1.8675,0l0,-5.265c-0.03,-0.405 -0.17625,-0.75375 -0.43875,-1.04625c-0.2625,-0.2925 -0.67875,-0.45375 -1.24875,-0.48375c-0.39,0 -0.76125,0.0675 -1.11375,0.2025c-0.3525,0.135 -0.66375,0.3225 -0.93375,0.5625c-0.27,0.24 -0.4875,0.525 -0.6525,0.855c-0.165,0.33 -0.2475,0.69 -0.2475,1.08l0,4.095l-1.8675,0l0,-8.4375Z" style="fill:#000;fill-rule:nonzero;"/><path d="M154.081,280.518c0,0.735 0.24375,1.35375 0.73125,1.85625c0.4875,0.5025 1.12125,0.75375 1.90125,0.75375c0.78,0 1.41375,-0.25125 1.90125,-0.75375c0.4875,-0.5025 0.73125,-1.12125 0.73125,-1.85625c0,-0.75 -0.24375,-1.36875 -0.73125,-1.85625c-0.4875,-0.4875 -1.12125,-0.73125 -1.90125,-0.73125c-0.78,0 -1.41375,0.24375 -1.90125,0.73125c-0.4875,0.4875 -0.73125,1.10625 -0.73125,1.85625ZM152.191,280.518c0,-0.6 0.11625,-1.16625 0.34875,-1.69875c0.2325,-0.5325 0.55125,-1.00125 0.95625,-1.40625c0.405,-0.405 0.885,-0.72375 1.44,-0.95625c0.555,-0.2325 1.1475,-0.34875 1.7775,-0.34875c0.405,0 0.78,0.05625 1.125,0.16875c0.345,0.1125 0.645,0.24 0.9,0.3825c0.255,0.1425 0.4575,0.2775 0.6075,0.405c0.15,0.1275 0.225,0.21375 0.225,0.25875c-0.03,-0.12 -0.0675,-0.24 -0.1125,-0.36c-0.045,-0.12 -0.0825,-0.24 -0.1125,-0.36l0,-8.73l1.8675,0l0,16.875l-1.6425,0l0,-0.72l0,-0.2025c0,0.045 -0.0675,0.1275 -0.2025,0.2475c-0.135,0.12 -0.3225,0.24375 -0.5625,0.37125c-0.24,0.1275 -0.53625,0.24375 -0.88875,0.34875c-0.3525,0.105 -0.75375,0.1575 -1.20375,0.1575c-0.63,0 -1.2225,-0.11625 -1.7775,-0.34875c-0.555,-0.2325 -1.035,-0.55125 -1.44,-0.95625c-0.405,-0.405 -0.72375,-0.8775 -0.95625,-1.4175c-0.2325,-0.54 -0.34875,-1.11 -0.34875,-1.71Z" style="fill:#000;fill-rule:nonzero;"/><path d="M164.071,273.048c0,-0.345 0.12,-0.63 0.36,-0.855c0.24,-0.225 0.51,-0.3375 0.81,-0.3375c0.285,0 0.5475,0.1125 0.7875,0.3375c0.24,0.225 0.36,0.51 0.36,0.855c0,0.345 -0.12,0.62625 -0.36,0.84375c-0.24,0.2175 -0.5025,0.32625 -0.7875,0.32625c-0.3,0 -0.57,-0.10875 -0.81,-0.32625c-0.24,-0.2175 -0.36,-0.49875 -0.36,-0.84375ZM166.141,284.748l-1.8675,0l0,-8.4375l1.8675,0l0,8.4375Z" style="fill:#000;fill-rule:nonzero;"/><path d="M169.313,276.311l1.6425,0l0,0.2025c0.03,0.36 0.05625,0.68625 0.07875,0.97875c0.0225,0.2925 0.04875,0.61875 0.07875,0.97875c0.3,-0.72 0.78375,-1.29375 1.45125,-1.72125c0.6675,-0.4275 1.40625,-0.64125 2.21625,-0.64125c0.885,0 1.5825,0.2325 2.0925,0.6975c0.51,0.465 0.78,1.0725 0.81,1.8225l0,6.12l-1.8675,0l0,-5.265c-0.03,-0.405 -0.17625,-0.75375 -0.43875,-1.04625c-0.2625,-0.2925 -0.67875,-0.45375 -1.24875,-0.48375c-0.39,0 -0.76125,0.0675 -1.11375,0.2025c-0.3525,0.135 -0.66375,0.3225 -0.93375,0.5625c-0.27,0.24 -0.4875,0.525 -0.6525,0.855c-0.165,0.33 -0.2475,0.69 -0.2475,1.08l0,4.095l-1.8675,0l0,-8.4375Z" style="fill:#000;fill-rule:nonzero;"/><path d="M181.598,280.518c0,0.735 0.24375,1.35375 0.73125,1.85625c0.4875,0.5025 1.12125,0.75375 1.90125,0.75375c0.78,0 1.41375,-0.25125 1.90125,-0.75375c0.4875,-0.5025 0.73125,-1.12125 0.73125,-1.85625c0,-0.75 -0.24375,-1.36875 -0.73125,-1.85625c-0.4875,-0.4875 -1.12125,-0.73125 -1.90125,-0.73125c-0.78,0 -1.41375,0.24375 -1.90125,0.73125c-0.4875,0.4875 -0.73125,1.10625 -0.73125,1.85625ZM187.178,276.311l1.5525,0l0,9.7875c0,0.6 -0.11625,1.15875 -0.34875,1.67625c-0.2325,0.5175 -0.55125,0.9675 -0.95625,1.35c-0.405,0.3825 -0.8775,0.68625 -1.4175,0.91125c-0.54,0.225 -1.125,0.3375 -1.755,0.3375c-0.675,0 -1.3275,-0.14625 -1.9575,-0.43875c-0.63,-0.2925 -1.17,-0.59625 -1.62,-0.91125c0.21,-0.255 0.41625,-0.51 0.61875,-0.765c0.2025,-0.255 0.40875,-0.51 0.61875,-0.765c0.3,0.225 0.64875,0.43875 1.04625,0.64125c0.3975,0.2025 0.81375,0.30375 1.24875,0.30375c0.39,0 0.74625,-0.0675 1.06875,-0.2025c0.3225,-0.135 0.60375,-0.31875 0.84375,-0.55125c0.24,-0.2325 0.42375,-0.51 0.55125,-0.8325c0.1275,-0.3225 0.19125,-0.67125 0.19125,-1.04625l0,-1.5075c0.03,-0.075 0.06375,-0.14625 0.10125,-0.21375c0.0375,-0.0675 0.07125,-0.13875 0.10125,-0.21375c-0.045,0.06 -0.1425,0.15 -0.2925,0.27c-0.15,0.12 -0.345,0.23625 -0.585,0.34875c-0.24,0.1125 -0.525,0.21375 -0.855,0.30375c-0.33,0.09 -0.6975,0.135 -1.1025,0.135c-0.63,0 -1.2225,-0.11625 -1.7775,-0.34875c-0.555,-0.2325 -1.035,-0.5475 -1.44,-0.945c-0.405,-0.3975 -0.72375,-0.8625 -0.95625,-1.395c-0.2325,-0.5325 -0.34875,-1.09875 -0.34875,-1.69875c0,-0.585 0.11625,-1.1475 0.34875,-1.6875c0.2325,-0.54 0.55125,-1.0125 0.95625,-1.4175c0.405,-0.405 0.885,-0.7275 1.44,-0.9675c0.555,-0.24 1.1475,-0.36 1.7775,-0.36c0.405,0 0.78,0.06 1.125,0.18c0.345,0.12 0.645,0.25125 0.9,0.39375c0.255,0.1425 0.4575,0.28125 0.6075,0.41625c0.15,0.135 0.225,0.225 0.225,0.27c0,-0.165 0.015,-0.3375 0.045,-0.5175c0.03,-0.18 0.045,-0.36 0.045,-0.54Z" style="fill:#000;fill-rule:nonzero;"/></g></svg>