<?xml version="1.0" standalone="no"?><!DOCTYPE svg PUBLIC "-//W3C//DTD SVG 1.1//EN" "http://www.w3.org/Graphics/SVG/1.1/DTD/svg11.dtd"><svg width="100%" height="100%" viewBox="0 0 280 120" version="1.1" xmlns="http://www.w3.org/2000/svg" xmlns:xlink="http://www.w3.org/1999/xlink" xml:space="preserve" style="fill-rule:evenodd;clip-rule:evenodd;stroke-linejoin:round;stroke-miterlimit:1.41421;"><g id="Layer1"><g transform="matrix(1,0,0,1,-406.658,-91.5609)"><path d="M416.661,134.128c0,1.6 -0.95,1.75 -2.15,1.75l-1.5,0l0,1.55l9.7,0l0,-1.55l-1.95,0c-0.85,0 -1.55,-0.45 -1.55,-1.75l0,-13.35c1,-3.3 4.75,-5.45 7.55,-5.45c3.6,0 5,2.65 5,5.2l0,13.45c0,1.2 -0.85,1.9 -1.95,1.9l-1.8,0l0,1.55l10.15,0l0,-1.55l-2,0c-0.95,0 -1.85,-0.6 -1.85,-1.9l0,-13.45c0,-3.15 -1.3,-6.75 -6.4,-6.75c-2.9,0 -5.25,0.8 -7.1,2.5l-1.6,1.65l0,-4.15c-2.4,1.4 -4.55,2.15 -6.35,2.15l0,1.55c1.9,-0.05 3.8,-0.1 3.8,1.35l0,15.3Z" style="fill:#000;fill-rule:nonzero;"/><path d="M462.561,124.928c0,-7.05 -4.55,-11.75 -10.05,-11.75c-5.25,0 -10.45,5.05 -10.45,12.9c0,5.5 3.25,12.3 10.95,12.3c4.05,0 6.15,-1.35 10.1,-6.4l-1.3,-0.9c-2.3,3.15 -4.45,5.75 -8.3,5.75c-5.05,0 -8.9,-5.2 -8.9,-10.75l0,-1.15l17.95,0ZM444.711,123.378c0.75,-5.1 4,-8.65 7.8,-8.65c2.2,0 3.9,0.7 5.2,2.1c1.35,1.4 2.05,3.6 2.25,6.55l-15.25,0Z" style="fill:#000;fill-rule:nonzero;"/><path d="M490.411,126.028c0,-8.75 -5.35,-13 -11.05,-13c-4.5,0 -11.35,3.4 -11.35,13c0,5.35 3,12.45 11.35,12.45c7.9,0 11.05,-6.9 11.05,-12.45ZM487.561,126.028c0,4.2 -1.65,10.85 -8.2,10.85c-7.2,0 -8.55,-7.2 -8.55,-10.85c0,-3.9 0.75,-6.8 2.35,-8.6c1.7,-1.85 3.75,-2.8 6.2,-2.8c2.4,0 4.4,0.95 5.95,2.75c1.5,1.8 2.25,4.7 2.25,8.65Z" style="fill:#000;fill-rule:nonzero;"/><path d="M497.761,134.128c0,1.6 -0.95,1.75 -2.15,1.75l-1.5,0l0,1.55l9.7,0l0,-1.55l-1.95,0c-0.85,0 -1.55,-0.45 -1.55,-1.75l0,-13.35c1,-3.3 4.75,-5.45 7.55,-5.45c3.6,0 5,2.65 5,5.2l0,13.45c0,1.2 -0.85,1.9 -1.95,1.9l-1.8,0l0,1.55l10.15,0l0,-1.55l-2,0c-0.95,0 -1.85,-0.6 -1.85,-1.9l0,-13.45c0,-3.15 -1.3,-6.75 -6.4,-6.75c-2.9,0 -5.25,0.8 -7.1,2.5l-1.6,1.65l0,-4.15c-2.4,1.4 -4.55,2.15 -6.35,2.15l0,1.55c1.9,-0.05 3.8,-0.1 3.8,1.35l0,15.3Z" style="fill:#000;fill-rule:nonzero;"/><path d="M554.811,100.578c-2.45,1.35 -4.6,2.05 -6.4,2.05l0,1.55c3.45,0 3.85,0.15 3.85,1.4l0,10.95c-1.8,-1.85 -4.05,-2.75 -6.75,-2.75c-6.2,0 -10.8,5.4 -10.8,11.45c0,7.5 4.05,12.55 9.95,12.55c3.75,0 5.7,-1.1 7.6,-3.55l0,3.2l7,0l0,-1.55l-2.05,0c-1.3,0 -2.4,-0.65 -2.4,-2.75l0,-32.55ZM552.261,130.528c-0.65,2.75 -3.3,5.5 -6.95,5.5c-5.75,0 -7.8,-6.15 -7.8,-10.8c0,-6.45 4.2,-9.7 8,-9.7c3.65,0 6.2,2.55 6.75,3.8l0,11.2Z" style="fill:#000;fill-rule:nonzero;"/><path d="M584.561,126.028c0,-8.75 -5.35,-13 -11.05,-13c-4.5,0 -11.35,3.4 -11.35,13c0,5.35 3,12.45 11.35,12.45c7.9,0 11.05,-6.9 11.05,-12.45ZM581.711,126.028c0,4.2 -1.65,10.85 -8.2,10.85c-7.2,0 -8.55,-7.2 -8.55,-10.85c0,-3.9 0.75,-6.8 2.35,-8.6c1.7,-1.85 3.75,-2.8 6.2,-2.8c2.4,0 4.4,0.95 5.95,2.75c1.5,1.8 2.25,4.7 2.25,8.65Z" style="fill:#000;fill-rule:nonzero;"/><path d="M606.661,117.778c0.7,-2.05 1.75,-2.05 4.15,-2.05l0,-1.55l-9.25,0l0,1.55l1.55,0c1,0 2.05,0.35 2.05,1.3c0,0.2 -0.05,0.45 -0.15,0.75l-6.1,15.3l-5.9,-15.25c-0.15,-0.35 -0.25,-0.65 -0.25,-0.9c0,-1.2 1.2,-1.2 3.35,-1.2l0,-1.55l-10.2,0l0,1.55l1.65,0c2,0 2.55,1.25 2.9,2.1l7.65,19.95l0.85,0l7.7,-20Z" style="fill:#000;fill-rule:nonzero;"/><path d="M633.211,124.928c0,-7.05 -4.55,-11.75 -10.05,-11.75c-5.25,0 -10.45,5.05 -10.45,12.9c0,5.5 3.25,12.3 10.95,12.3c4.05,0 6.15,-1.35 10.1,-6.4l-1.3,-0.9c-2.3,3.15 -4.45,5.75 -8.3,5.75c-5.05,0 -8.9,-5.2 -8.9,-10.75l0,-1.15l17.95,0ZM615.361,123.378c0.75,-5.1 4,-8.65 7.8,-8.65c2.2,0 3.9,0.7 5.2,2.1c1.35,1.4 2.05,3.6 2.25,6.55l-15.25,0Z" style="fill:#000;fill-rule:nonzero;"/><path d="M638.361,130.528l2.1,7.05l0.8,0l1.25,-1.35c2.2,1.4 4.3,2.1 6.25,2.1c5.05,0 7.7,-3.45 7.7,-6.55c0,-5.25 -3.3,-6.6 -8.05,-7.85c-4.85,-1.05 -6.7,-2.05 -6.7,-4.65c0,-2.3 1.7,-4.4 4.9,-4.4c4.3,0 6.6,2.3 8.5,5.35l0.95,0l-2.55,-6.6l-0.5,0l-1.05,1.15c-1.65,-0.95 -3.45,-1.45 -5.35,-1.45c-4.65,0 -7.2,3.45 -7.2,5.95c0,1.6 0.5,3 1.45,4c1.05,1.25 3.6,2.25 7.55,3.2c3.45,0.95 5.75,2.25 5.75,5.7c0,2.9 -2.6,4.6 -5.4,4.6c-1.7,0 -3.5,-0.5 -5.2,-1.55c-1.7,-0.9 -3.1,-2.55 -4.35,-4.95l-0.85,0.25Z" style="fill:#000;fill-rule:nonzero;"/></g><path d="M129.595,84.7761c0.135271,0.038565 15.2072,-3.20024 13.9753,-3.1915c-1.23188,0.00873998 -6.00197,-4.1896 -8.56329,-3.98719c-2.56133,0.202402 10.6818,-2.26259 11.5295,-1.68098c0.847697,0.581612 -6.17567,-5.61216 -8.2934,-5.53856c-2.11774,0.0735993 10.7776,-0.867201 10.1831,-0.722904c-0.594528,0.144297 -9.6332,-5.20202 -7.62232,-4.97535c2.01088,0.226668 13.9762,-2.26111 12.1839,-2.29955c-1.79235,-0.0384409 -8.29215,-3.22954 -8.29215,-3.22954" style="fill:#b5e4b5;"/><path d="M186.648,63.176c1.30362,0.133155 -4.62391,0.699814 -4.62391,0.699814l1.92349,-3.13807c0,0 1.3968,2.3051 2.70042,2.43825Z" style="fill:#b5e4b5;"/><path d="M216.27,69.7975c0,0 4.8126,-3.48728 7.29816,-8.44021c2.48557,-4.95294 8.68176,-8.33465 8.68176,-8.33465" style="fill:#b5e4b5;"/><path d="M212.457,71.4492c0,0 6.58225,-5.65201 9.06781,-10.6049c2.48557,-4.95294 7.33294,-8.12814 7.33294,-8.12814" style="fill:#b5e4b5;"/><path d="M233.087,83.8012c0,0 -7.18273,-2.27221 -10.2818,-4.68538c-3.09907,-2.41316 -6.88754,-4.22073 -10.9891,-5.44257" style="fill:#b5e4b5;"/><path d="M235.711,82.969c0,0 -7.82651,-2.31059 -10.9256,-4.72375c-3.09907,-2.41316 -6.88754,-4.22073 -10.9891,-5.44257" style="fill:#b5e4b5;"/><path d="M128.752,85.3367c0,0 7.85351,-8.3619 9.07776,-14.1464c1.30139,-6.14892 6.9004,-12.0553 6.9004,-12.0553" style="fill:#b5e4b5;"/><path d="M125.927,86.0452c0,0 8.19926,-8.2192 9.42351,-14.0037c1.30139,-6.14892 6.8643,-12.5219 6.8643,-12.5219" style="fill:#b5e4b5;"/><path d="M145.946,86.6629c0,0 3.75299,6.96437 7.62512,9.53838c4.31793,2.87036 6.64849,3.67791 9.33651,5.70777c2.68802,2.02986 4.61455,5.58097 4.61455,5.58097" style="fill:#b5e4b5;"/><path d="M143.906,87.2199c0,0 3.85126,7.47306 7.72339,10.0471c4.31793,2.87036 6.34066,3.20969 9.02867,5.23956c2.68802,2.02986 4.80398,5.43629 4.80398,5.43629" style="fill:#b5e4b5;"/><path d="M248.615,58.2623c-0.103217,-0.534326 -0.620048,-0.883809 -1.15437,-0.780591c-0.534326,0.103217 -0.883809,0.620048 -0.780591,1.15437c0.103217,0.534326 0.620048,0.883809 1.15437,0.780591c0.534326,-0.103217 0.883809,-0.620048 0.780591,-1.15437Z" style="fill:#b5e4b5;"/><path d="M233.153,78.6763c-0.103217,-0.534326 -0.620048,-0.883809 -1.15437,-0.780591c-0.534326,0.103217 -0.883809,0.620048 -0.780591,1.15437c0.103217,0.534326 0.620048,0.883809 1.15437,0.780591c0.534326,-0.103217 0.883809,-0.620048 0.780591,-1.15437Z" style="fill:#b5e4b5;"/><path d="M228.179,76.2489c-0.103217,-0.534326 -0.620048,-0.883809 -1.15437,-0.780591c-0.534326,0.103217 -0.883809,0.620048 -0.780591,1.15437c0.103217,0.534326 0.620048,0.883809 1.15437,0.780591c0.534326,-0.103217 0.883809,-0.620048 0.780591,-1.15437Z" style="fill:#b5e4b5;"/><path d="M223.591,73.0886c-0.103217,-0.534326 -0.620048,-0.883809 -1.15437,-0.780591c-0.534326,0.103217 -0.883809,0.620048 -0.780591,1.15437c0.103217,0.534326 0.620048,0.883809 1.15437,0.780591c0.534326,-0.103217 0.883809,-0.620048 0.780591,-1.15437Z" style="fill:#b5e4b5;"/><path d="M225.012,64.7611c-0.103217,-0.534326 -0.620048,-0.883809 -1.15437,-0.780591c-0.534326,0.103217 -0.883809,0.620048 -0.780591,1.15437c0.103217,0.534326 0.620048,0.883809 1.15437,0.780591c0.534326,-0.103217 0.883809,-0.620048 0.780591,-1.15437Z" style="fill:#b5e4b5;"/><path d="M228.228,61.023c-0.103217,-0.534326 -0.620048,-0.883809 -1.15437,-0.780591c-0.534326,0.103217 -0.883809,0.620048 -0.780591,1.15437c0.103217,0.534326 0.620048,0.883809 1.15437,0.780591c0.534326,-0.103217 0.883809,-0.620048 0.780591,-1.15437Z" style="fill:#b5e4b5;"/><path d="M232.004,57.8993c-0.103217,-0.534326 -0.620048,-0.883809 -1.15437,-0.780591c-0.534326,0.103217 -0.883809,0.620048 -0.780591,1.15437c0.103217,0.534326 0.620048,0.883809 1.15437,0.780591c0.534326,-0.103217 0.883809,-0.620048 0.780591,-1.15437Z" style="fill:#b5e4b5;"/><path d="M169.852,104.459c-0.103217,-0.534326 -0.620048,-0.883809 -1.15437,-0.780591c-0.534326,0.103217 -0.883809,0.620048 -0.780591,1.15437c0.103217,0.534326 0.620048,0.883809 1.15437,0.780591c0.534326,-0.103217 0.883809,-0.620048 0.780591,-1.15437Z" style="fill:#b5e4b5;"/><path d="M166.472,100.686c-0.103217,-0.534326 -0.620048,-0.883809 -1.15437,-0.780591c-0.534326,0.103217 -0.883809,0.620048 -0.780591,1.15437c0.103217,0.534326 0.620048,0.883809 1.15437,0.780591c0.534326,-0.103217 0.883809,-0.620048 0.780591,-1.15437Z" style="fill:#b5e4b5;"/><path d="M162.109,97.9628c-0.103217,-0.534326 -0.620048,-0.883809 -1.15437,-0.780591c-0.534326,0.103217 -0.883809,0.620048 -0.780591,1.15437c0.103217,0.534326 0.620048,0.883809 1.15437,0.780591c0.534326,-0.103217 0.883809,-0.620048 0.780591,-1.15437Z" style="fill:#b5e4b5;"/><path d="M127.23,75.7518c0,0 0.955446,0.972798 4.8912,-8.86423" style="fill:#b5e4b5;"/><path d="M127.662,79.4071c0,0 3.38827,-2.28855 7.12827,-14.8615" style="fill:#b5e4b5;"/><path d="M165.978,61.5583c0,0 -6.00726,4.13036 -8.78233,11.1461" style="fill:#b5e4b5;"/><path d="M188.826,96.4324c0,0 -2.80528,-1.60584 -3.17546,-2.95948" style="fill:#b5e4b5;"/><path d="M188.042,98.5878c0,0 -3.85482,-0.821377 -7.64818,-8.21808" style="fill:#b5e4b5;"/><path d="M185.62,102.058c0,0 -0.466554,-2.02543 -3.38261,-3.99728" style="fill:#b5e4b5;"/><path d="M231.416,66.4375c0,0 1.5548,1.72109 5.21813,3.10714" style="fill:#b5e4b5;"/><path d="M228.298,67.6296c0,0 2.92555,2.75029 9.56896,4.92448" style="fill:#b5e4b5;"/><path d="M231.252,65.1959c0,0 1.77152,-3.05406 3.70738,-4.67586" style="fill:#b5e4b5;"/><path d="M247.668,63.2328l-1.41803,2.23201" style="fill:#b5e4b5;"/><path d="M245.671,62.0705c0,0 -1.85889,1.63466 -1.84497,2.26834" style="fill:#b5e4b5;"/><path d="M244.23,60.1763l-2.76833,1.18085" style="fill:#b5e4b5;"/><path d="M244.668,55.489c0,0 -0.745175,-0.598887 -2.45835,-0.556985" style="fill:#b5e4b5;"/><path d="M243.985,57.612c0,0 -1.11565,-0.295363 -3.08733,-0.0954388" style="fill:#b5e4b5;"/><path d="M214.74,92.7671c0,0 -3.65185,-0.0127017 -16.6259,-5.74687" style="fill:#b5e4b5;"/><path d="M211.611,94.7528c0,0 -4.8168,-1.58383 -6.45222,-2.40098" style="fill:#b5e4b5;"/><path d="M220.887,89.3018c0,0 -1.75807,-1.53589 -6.00076,-2.63312" style="fill:#b5e4b5;"/><path d="M218.765,54.5277l-2.49099,3.04407" style="fill:#b5e4b5;"/><path d="M223.279,53.4226c0,0 -5.13072,4.5134 -7.32038,7.91865" style="fill:#b5e4b5;"/><path d="M204.236,75.7153c0,0 4.07055,4.38478 9.52473,6.64863" style="fill:#b5e4b5;"/><path d="M201.475,74.1671c0,0 4.81628,-3.66206 6.4942,-6.60655" style="fill:#b5e4b5;"/><path d="M195.998,75.5506c0,0 5.87479,-4.24504 12.064,-11.4436" style="fill:#b5e4b5;"/><path d="M198.705,77.04c0,0 2.24086,2.05269 4.51088,2.62176" style="fill:#b5e4b5;"/><path d="M196.224,77.8739c0,0 2.06608,2.90822 10.6557,7.47377" style="fill:#b5e4b5;"/><path d="M187.185,79.9911c0,0 3.06465,1.87453 8.11919,4.26578" style="fill:#b5e4b5;"/><path d="M172.803,82.6444c0,0 -0.368767,-0.299574 2.18468,1.55023" style="fill:#b5e4b5;"/><path d="M170.346,83.2315c0,0 0.801527,1.47738 3.75589,3.71771" style="fill:#b5e4b5;"/><path d="M166.808,83.636c0,0 4.02428,3.82252 11.8893,10.729" style="fill:#b5e4b5;"/><path d="M174.038,79.7822c0,0 4.6438,-6.04912 9.35298,-9.93865" style="fill:#b5e4b5;"/><path d="M170.504,80.1948c0,0 2.09556,-1.93298 3.70988,-4.33285" style="fill:#b5e4b5;"/><path d="M151.948,83.054c0,0 4.0299,-3.17497 8.25694,-11.0337" style="fill:#b5e4b5;"/><path d="M155.423,85.3819c0,0 4.15147,4.65685 6.03662,6.67676c3.66928,3.93158 8.40338,7.01948 8.40338,7.01948" style="fill:#b5e4b5;"/><path d="M151.455,86.0066c0,0 0.681127,1.36543 3.73805,4.00047" style="fill:#b5e4b5;"/><path d="M148.186,86.6257c0,0 0.718872,3.26036 9.8409,10.4207" style="fill:#b5e4b5;"/><path d="M134.308,88.3134c0,0 0.862788,1.41939 4.76745,4.0862" style="fill:#b5e4b5;"/><path d="M250.112,55.1253l2.27418,-1.91466" style="fill:#b5e4b5;"/><path d="M251.388,61.4263l2.49005,0.572316" style="fill:#b5e4b5;"/><path d="M251.749,59.1827c0.966853,-0.156162 1.90005,-0.0434437 3.13293,0.161724" style="fill:#b5e4b5;"/><path d="M251.395,57.0503c0,0 0.861981,-0.384909 4.08951,-0.899686" style="fill:#b5e4b5;"/><path d="M115.474,89.9911c0,0 3.38869,2.05785 7.39112,6.67986" style="fill:#b5e4b5;"/><path d="M118.481,86.0721c0,0 2.6746,-2.36808 3.72713,-4.78108" style="fill:#b5e4b5;"/><path d="M114.477,86.2165c0,0 4.53527,-3.0463 9.12227,-15.2079" style="fill:#b5e4b5;"/><path d="M103.982,90.6959c0,0 0.757261,1.91463 3.41487,3.39415" style="fill:#b5e4b5;"/><path d="M101.739,91.0502c0,0 1.68938,4.53325 8.35909,8.77056" style="fill:#b5e4b5;"/><path d="M100.951,86.9713c0,0 6.95722,-5.79184 8.63812,-10.2863" style="fill:#b5e4b5;"/><path d="M110.866,87.2749c0,0 2.23811,-4.36046 3.80427,-10.5931c1.56616,-6.23266 8.91202,-11.8609 8.91202,-11.8609c0,0 -9.69993,2.02142 -13.5978,7.05216c-4.35494,5.62061 -10.0624,14.8582 -17.9108,15.9547" style="fill:#b5e4b5;"/><path d="M121.782,89.7591c0,0 8.19328,4.05837 9.99356,7.16023c1.80028,3.10186 3.15795,5.9431 7.40935,9.1538c4.2514,3.21069 8.20061,3.8511 8.20061,3.8511c0,0 2.40327,-2.59074 5.72398,-2.58855c3.32071,0.00218418 8.74484,0.978866 12.5057,0.50618c3.7609,-0.472685 6.8523,-0.610801 13.283,-2.77541c6.43071,-2.16461 7.0274,-3.09662 10.907,-3.51691c4.7116,-0.510411 13.1106,0.0632617 13.1106,0.0632617c0,0 -6.909,-3.92633 -8.28076,-4.67784c-1.37176,-0.751502 -4.38403,-3.33682 -5.68294,-4.98839c-3.56744,-4.53601 -9.62406,-7.94448 -9.62406,-7.94448c0,0 4.80562,0.616457 10.8444,6.64245c6.03883,6.026 17.9153,6.72296 17.9153,6.72296c0,0 11.9497,-9.29708 27.7723,-14.3475c10.389,-3.31604 10.8146,-3.97937 13.512,-7.36772c1.55666,-1.95546 6.56191,-8.49835 17.1043,-13.1077c2.16469,-0.946442 0.89065,-3.73826 4.53998,-5.79124c3.48371,-1.95981 1.89737,-3.41477 -1.26302,-3.88209c-3.16038,-0.467318 -8.54132,0.131289 -8.54132,0.131289c0,0 -4.64199,1.29659 -7.15837,1.22675c-1.92743,-0.0534946 6.42665,-3.94905 10.6165,-4.8167c4.18981,-0.867651 -9.11022,-1.0692 -19.8744,1.98655c-10.7641,3.05575 -17.5281,0.280709 -22.252,1.79916c-7.2763,2.33888 -17.7438,3.04213 -19.8779,6.1206c-3.70423,5.34343 -6.24612,7.38263 -6.24612,7.38263c0,0 -10.8407,6.61368 -11.646,6.34297c-0.80525,-0.270717 5.54404,-4.2619 7.40408,-7.88564c1.86004,-3.62373 7.24258,-6.77905 7.24258,-6.77905c0,0 -5.71578,-1.5328 -11.7576,-0.0216283c-1.85857,0.464866 -4.77163,-0.308482 -4.77163,-0.308482c0,0 -10.0364,13.6004 -14.152,16.6124c-4.11563,3.01199 -5.6159,5.03724 -5.6159,5.03724c0,0 7.06127,-12.087 8.85722,-15.4421c1.79595,-3.3551 3.78438,-4.1838 4.89739,-6.30173c0.469433,-0.893272 -1.61454,0.697927 -7.01162,0.614103c-2.47962,-0.0385119 -5.66413,-0.411644 -9.61055,-1.57962c-3.66717,-1.08533 -8.58312,0.923895 -16.0591,2.09722c-7.47595,1.17333 -5.8335,2.16686 -13.7771,0.41889c-1.10505,-0.243163 -4.25959,3.64056 -6.80466,6.29445c-2.86657,2.98913 -5.23493,9.21405 -5.23493,9.21405c0,0 -3.59605,9.35121 -8.65875,11.4683" style="fill:#b5e4b5;"/><path d="M239.124,62.5638c0,0 -20.1642,12.8711 -78.3908,21.9487c-58.2266,9.07758 -86.067,6.33341 -86.067,6.33341l-5.8943,-3.5552c0,0 51.0551,1.07511 81.2703,-3.82318c14.8701,-2.41064 23.8524,-2.7027 43.5193,-7.13933c22.6216,-5.10318 45.3963,-13.616 45.5625,-13.7644Z" style="fill:#b5e4b5;"/><path d="M97.1273,90.7522c0,0 5.7046,7.0544 11.1423,10.4128c7.02858,4.34104 14.82,10.0346 18.1914,13.9265c2.12327,2.45114 -3.42615,-4.32622 -6.75018,-10.8553c-2.47956,-4.87037 -3.13738,-7.72894 -5.25926,-9.86824c-4.96641,-5.00718 5.21655,5.0459 9.21404,8.6133c7.54174,6.73031 18.5546,6.87332 18.5546,6.87332c0,0 -6.09211,-1.45531 -9.35468,-5.89614c-3.91488,-5.32872 -3.66453,-6.14825 -5.26229,-8.85871c-1.59776,-2.71046 -6.10603,-5.81749 -6.10603,-5.81749" style="fill:#b5e4b5;"/><path d="M249.279,62.2926c0,0 0.865729,-1.97493 0.415411,-4.51357c-0.450319,-2.53864 -2.66444,-2.84141 -2.66444,-2.84141c0,0 -1.69481,1.93289 -1.26352,4.12786c0.431297,2.19498 3.51255,3.22712 3.51255,3.22712Z" style="fill:#b5e4b5;"/><path d="M130.596,88.616c0,0 2.79445,4.07183 15.2492,12.6716" style="fill:#b5e4b5;"/><path d="M163.114,61.5431c0,0 -4.19975,4.3368 -5.10129,6.33384" style="fill:#b5e4b5;"/><path d="M162.559,84.5961c0,0 4.42314,4.97415 9.25453,8.8763c3.52343,2.84575 6.89731,6.64773 8.41079,10.7608" style="fill:#b5e4b5;"/><path d="M159.537,84.8688c0,0 5.03725,5.70138 9.86864,9.60353c3.52343,2.84575 7.4111,6.61042 8.92458,10.7234" style="fill:#b5e4b5;"/><path d="M143.871,83.9386c0,0 4.18605,-4.31115 5.99918,-11.512c1.15247,-4.57701 3.64115,-7.14052 5.33584,-9.03634c1.69469,-1.89582 5.96083,-5.98009 5.96083,-5.98009" style="fill:#b5e4b5;"/><path d="M141.179,84.4985c0,0 4.45597,-3.85434 6.07868,-11.1005c1.08035,-4.82426 5.39868,-10.5045 5.26751,-10.3111l6.33558,-6.2468" style="fill:#b5e4b5;"/><path d="M136.555,81.4392c0,0 4.34319,-5.75563 6.53842,-11.4443c1.69535,-4.3933 7.61845,-10.8372 7.61845,-10.8372" style="fill:#b5e4b5;"/><path d="M146.82,107.859l-3.12718,-2.26321c0,0 4.78669,-1.18212 4.34911,-0.750262c-1.36639,1.34855 -1.22193,3.01347 -1.22193,3.01347Z" style="fill:#b5e4b5;"/><path d="M141.555,104.547l-2.79668,-2.60182c0,0 4.75161,-0.559013 4.31403,-0.127155c-1.36639,1.34855 -1.51735,2.72898 -1.51735,2.72898Z" style="fill:#b5e4b5;"/><path d="M121.075,32.6349c0.96887,0.345365 1.47432,1.41076 1.12895,2.37963c-0.345365,0.96887 -1.41076,1.47432 -2.37963,1.12895c-0.96887,-0.345365 -1.47432,-1.41076 -1.12895,-2.37963c0.345365,-0.96887 1.41076,-1.47432 2.37963,-1.12895Z" style="fill:#000;"/></g></svg>